<svg width="40" height="46" viewBox="0 0 40 46" fill="none" xmlns="http://www.w3.org/2000/svg">
    <path d="M34.6307 10.125C34.3269 9.96799 34.0311 9.79586 33.7445 9.60927C32.9112 9.05832 32.1471 8.40915 31.4687 7.67572C29.7715 5.73374 29.1376 3.76362 28.9041 2.38426H28.9135C28.7184 1.23932 28.7991 0.498535 28.8113 0.498535H21.0808V30.3907C21.0808 30.792 21.0808 31.1886 21.064 31.5806C21.064 31.6294 21.0593 31.6744 21.0565 31.7269C21.0565 31.7485 21.0565 31.771 21.0518 31.7935C21.0518 31.7991 21.0518 31.8047 21.0518 31.8103C20.9703 32.8829 20.6265 33.9189 20.0506 34.8274C19.4747 35.7359 18.6844 36.4889 17.7492 37.0202C16.7745 37.5747 15.6721 37.8656 14.5507 37.8642C10.9489 37.8642 8.02987 34.9273 8.02987 31.3002C8.02987 27.6732 10.9489 24.7363 14.5507 24.7363C15.2325 24.7357 15.9101 24.843 16.5583 25.0542L16.5677 17.1831C14.5998 16.9289 12.6005 17.0853 10.6961 17.6424C8.79169 18.1996 7.02338 19.1453 5.50276 20.4201C4.17035 21.5777 3.05018 22.9591 2.19267 24.5019C1.86635 25.0645 0.635139 27.3253 0.486044 30.9945C0.392274 33.0772 1.01772 35.2348 1.31591 36.1266V36.1453C1.50345 36.6705 2.23017 38.4624 3.41449 39.9731C4.36949 41.1848 5.49778 42.2493 6.76304 43.1322V43.1134L6.78179 43.1322C10.5242 45.6752 14.6735 45.5083 14.6735 45.5083C15.3918 45.4793 17.7979 45.5083 20.5304 44.2134C23.5611 42.7777 25.2864 40.6388 25.2864 40.6388C26.3887 39.3608 27.2652 37.9044 27.8783 36.332C28.5778 34.4931 28.8113 32.2876 28.8113 31.4062V15.5477C28.905 15.604 30.1541 16.4301 30.1541 16.4301C30.1541 16.4301 31.9535 17.5835 34.761 18.3346C36.7752 18.8691 39.4889 18.9816 39.4889 18.9816V11.3074C38.5381 11.4106 36.6073 11.1105 34.6307 10.125Z" fill="white"/>
    </svg>
    