<svg width="46" height="38" viewBox="0 0 46 38" fill="none" xmlns="http://www.w3.org/2000/svg">
    <path d="M45.4981 5.26511C43.8097 5.99872 42.0233 6.48204 40.1954 6.69979C42.1164 5.5749 43.5611 3.78781 44.2584 1.6737C42.4422 2.73573 40.4584 3.48091 38.3922 3.8773C37.5221 2.96541 36.4756 2.23998 35.3164 1.7451C34.1572 1.25022 32.9095 0.996222 31.6491 0.998551C26.5461 0.998551 22.4165 5.06819 22.4165 10.0849C22.4129 10.7827 22.4928 11.4784 22.6547 12.1572C18.9955 11.9857 15.4123 11.0522 12.1346 9.41656C8.85676 7.7809 5.95649 5.47905 3.61928 2.65829C2.79932 4.04058 2.36569 5.61772 2.36369 7.22491C2.36369 10.3756 4.00748 13.1606 6.48959 14.7922C5.01901 14.7573 3.57857 14.3681 2.29055 13.6576V13.7701C2.29055 18.1773 5.47874 21.8437 9.69841 22.6783C8.90491 22.8898 8.08722 22.997 7.26601 22.9971C6.6833 22.9981 6.10191 22.9416 5.53032 22.8283C6.70338 26.4385 10.1176 29.064 14.1619 29.1391C10.8756 31.6717 6.84087 33.0406 2.69189 33.0305C1.95543 33.0294 1.21966 32.9856 0.488281 32.8993C4.70906 35.5944 9.61537 37.02 14.6232 37.0064C31.6294 37.0064 40.9202 23.1565 40.9202 11.1445C40.9202 10.7507 40.9099 10.3568 40.8911 9.97238C42.6944 8.68966 44.2545 7.09561 45.4981 5.26511Z" fill="white"/>
    </svg>
    