<svg width="49" height="37" viewBox="0 0 49 37" fill="none" xmlns="http://www.w3.org/2000/svg">
    <path d="M48.6642 7.95225C48.6642 3.73259 45.5604 0.3381 41.7252 0.3381C36.5303 0.0952349 31.2323 0.00146484 25.818 0.00146484H24.1301C18.729 0.00146484 13.4215 0.0952351 8.22666 0.339038C4.40083 0.339038 1.29703 3.75228 1.29703 7.97195C1.0626 11.3092 0.963206 14.6475 0.968832 17.9857C0.959455 21.3239 1.06573 24.6653 1.28765 28.0097C1.28765 32.2294 4.39145 35.652 8.21729 35.652C13.6747 35.9052 19.2728 36.0177 24.9647 36.0084C30.6659 36.0271 36.2484 35.9083 41.7121 35.652C45.5473 35.652 48.6511 32.2294 48.6511 28.0097C48.8761 24.6621 48.9793 21.3239 48.9699 17.9763C48.9912 14.6381 48.8893 11.2967 48.6642 7.95225ZM20.3793 27.1846V8.75868L33.976 17.9669L20.3793 27.1846Z" fill="white"/>
    </svg>
    